<svg xmlns="http://www.w3.org/2000/svg" width="22.031" height="17.875" viewBox="0 0 22.031 17.875">
  <metadata><?xpacket begin="﻿" id="W5M0MpCehiHzreSzNTczkc9d"?>
<x:xmpmeta xmlns:x="adobe:ns:meta/" x:xmptk="Adobe XMP Core 5.6-c142 79.160924, 2017/07/13-01:06:39        ">
   <rdf:RDF xmlns:rdf="http://www.w3.org/1999/02/22-rdf-syntax-ns#">
      <rdf:Description rdf:about=""/>
   </rdf:RDF>
</x:xmpmeta>
                                                                                                    
                                                                                                    
                                                                                                    
                                                                                                    
                                                                                                    
                                                                                                    
                                                                                                    
                                                                                                    
                                                                                                    
                                                                                                    
                                                                                                    
                                                                                                    
                                                                                                    
                                                                                                    
                                                                                                    
                                                                                                    
                                                                                                    
                                                                                                    
                                                                                                    
                                                                                                    
                           
<?xpacket end="w"?></metadata>
<defs>
    <style>
      .cls-1 {
        fill: #3aaae3;
        fill-rule: evenodd;
      }
    </style>
  </defs>
  <path class="cls-1" d="M204.139,353.089a8.491,8.491,0,0,1-1.064.385,4.653,4.653,0,0,0,.958-1.671,0.35,0.35,0,0,0-.117-0.383,0.355,0.355,0,0,0-.4-0.027,8.4,8.4,0,0,1-2.476.97,4.774,4.774,0,0,0-3.307-1.336,4.71,4.71,0,0,0-4.724,4.686,4.837,4.837,0,0,0,.039.6,12.119,12.119,0,0,1-8.3-4.367,0.356,0.356,0,0,0-.582.045,4.661,4.661,0,0,0,.485,5.394,4.162,4.162,0,0,1-.633-0.281,0.358,0.358,0,0,0-.349,0,0.35,0.35,0,0,0-.177.3c0,0.021,0,.041,0,0.063A4.692,4.692,0,0,0,185.8,361.5c-0.12-.011-0.24-0.028-0.359-0.051a0.358,0.358,0,0,0-.333.112,0.351,0.351,0,0,0-.072.341,4.706,4.706,0,0,0,3.461,3.141,8.408,8.408,0,0,1-4.467,1.264,8.774,8.774,0,0,1-1-.057,0.351,0.351,0,0,0-.233.645,12.816,12.816,0,0,0,6.888,2,12.291,12.291,0,0,0,9.5-4.137,13.045,13.045,0,0,0,3.291-8.545q0-.193-0.006-0.387a9.165,9.165,0,0,0,2.114-2.221,0.35,0.35,0,0,0-.024-0.422A0.357,0.357,0,0,0,204.139,353.089Z" transform="translate(-182.625 -351.031)"/>
</svg>
