<svg xmlns="http://www.w3.org/2000/svg" width="14.688" height="25.312" viewBox="0 0 14.688 25.312">
  <metadata><?xpacket begin="﻿" id="W5M0MpCehiHzreSzNTczkc9d"?>
<x:xmpmeta xmlns:x="adobe:ns:meta/" x:xmptk="Adobe XMP Core 5.6-c142 79.160924, 2017/07/13-01:06:39        ">
   <rdf:RDF xmlns:rdf="http://www.w3.org/1999/02/22-rdf-syntax-ns#">
      <rdf:Description rdf:about=""/>
   </rdf:RDF>
</x:xmpmeta>
                                                                                                    
                                                                                                    
                                                                                                    
                                                                                                    
                                                                                                    
                                                                                                    
                                                                                                    
                                                                                                    
                                                                                                    
                                                                                                    
                                                                                                    
                                                                                                    
                                                                                                    
                                                                                                    
                                                                                                    
                                                                                                    
                                                                                                    
                                                                                                    
                                                                                                    
                                                                                                    
                           
<?xpacket end="w"?></metadata>
<defs>
    <style>
      .cls-1 {
        fill: #ef8116;
        fill-rule: evenodd;
      }
    </style>
  </defs>
  <path id="Forma_1" data-name="Forma 1" class="cls-1" d="M50.679,364.016a9.312,9.312,0,0,1-5.073-1.872,6.927,6.927,0,0,1-.536-0.454,1.521,1.521,0,0,1-.2-2.116,1.42,1.42,0,0,1,1.92-.446,3.066,3.066,0,0,1,.419.256,8.091,8.091,0,0,0,9.22.088,2.476,2.476,0,0,1,.9-0.48,1.391,1.391,0,0,1,1.615.666,1.449,1.449,0,0,1-.1,1.859,7.427,7.427,0,0,1-2.682,1.791,12.171,12.171,0,0,1-3.044.7c0.157,0.177.23,0.264,0.328,0.366,1.41,1.463,2.825,2.921,4.229,4.389a1.481,1.481,0,0,1,.315,1.7,1.666,1.666,0,0,1-1.565,1.01,1.507,1.507,0,0,1-.991-0.525c-1.063-1.106-2.148-2.192-3.189-3.319-0.3-.328-0.449-0.265-0.717.019-1.069,1.139-2.157,2.26-3.251,3.375a1.335,1.335,0,0,1-1.646.305,1.729,1.729,0,0,1-.96-1.585,1.608,1.608,0,0,1,.515-1.064q2.092-2.159,4.177-4.326C50.459,364.266,50.544,364.165,50.679,364.016ZM51.834,359a6.407,6.407,0,1,1,6.231-6.321A6.309,6.309,0,0,1,51.834,359Zm3.076-6.41a3.031,3.031,0,1,0-3.011,3.141A3.07,3.07,0,0,0,54.911,352.592Z" transform="translate(-44.531 -346.188)"/>
</svg>
